<svg width="23" height="23" viewBox="0 0 23 23" fill="none" xmlns="http://www.w3.org/2000/svg">
<path fill-rule="evenodd" clip-rule="evenodd" d="M10.718 0.0210178C10.5038 0.0344537 9.52419 0.148449 9.38393 0.176259C8.94898 0.262508 7.98749 0.517467 7.65102 0.635768C7.45704 0.703983 6.35806 1.16388 6.31539 1.19473C6.29725 1.20781 6.17853 1.27376 6.05156 1.3412C5.58297 1.5902 5.45013 1.66849 5.09519 1.90454C4.20912 2.49387 3.50708 3.10063 2.82505 3.86657C2.54744 4.17838 1.97681 4.9159 1.84813 5.12923C1.80516 5.20045 1.70711 5.35343 1.63021 5.46917C1.28453 5.98948 0.664269 7.35739 0.444336 8.08445C0.29092 8.59158 0.0998763 9.5882 0.0333588 10.2284C0.0003474 10.546 -0.012811 12.0363 0.0154845 12.2519C0.0224759 12.3053 0.0373822 12.4291 0.0485949 12.5271C0.126259 13.2061 0.361395 14.2845 0.540996 14.7853C0.863096 15.6836 1.31843 16.6611 1.61533 17.0917C1.68301 17.1898 1.76173 17.3148 1.79032 17.3694C1.87112 17.5239 2.46591 18.3166 2.66214 18.5314C2.75906 18.6374 2.84655 18.7565 2.85664 18.7958C2.87979 18.8864 2.84091 19.0734 2.61524 19.9573C2.51522 20.349 2.39089 20.859 2.33895 21.0905C2.28701 21.3219 2.15905 21.8419 2.05464 22.2459C1.9502 22.6499 1.87286 22.9884 1.88276 22.9981C1.90386 23.0189 2.27942 22.8656 2.77924 22.6323C2.97467 22.541 3.14118 22.4664 3.14929 22.4664C3.16565 22.4664 3.41032 22.3584 3.80903 22.1751C3.95413 22.1084 4.18416 22.0065 4.32019 21.9486C4.45623 21.8908 4.73819 21.7639 4.94678 21.6666C5.15537 21.5694 5.44077 21.4464 5.58099 21.3932C5.72125 21.3401 5.84456 21.283 5.85504 21.2664C5.88904 21.2124 6.00549 21.2342 6.19535 21.3301C6.37966 21.4233 6.98475 21.6971 7.23878 21.8023C7.49252 21.9074 8.70062 22.2798 8.92069 22.3208C9.78977 22.4826 10.4436 22.5601 11.1423 22.5843C12.0713 22.6164 13.4015 22.4868 14.1897 22.2875C14.6251 22.1773 15.4964 21.9038 15.7814 21.7878C17.3695 21.1412 18.8169 20.1658 19.8733 19.0303C20.7388 18.0998 21.1949 17.4663 21.7227 16.4607C22.1625 15.6232 22.4757 14.8044 22.6705 13.984C22.9215 12.926 23.0178 12.0915 22.9973 11.1511C22.9795 10.3329 22.963 10.1449 22.8494 9.46757C22.7476 8.86088 22.51 7.95164 22.3416 7.52503C22.2573 7.31135 22.158 7.05095 22.121 6.94638C22.0177 6.65422 21.5221 5.72504 21.2354 5.28599C20.5152 4.18304 19.5697 3.14068 18.6823 2.47147C18.0055 1.96104 17.7115 1.76905 17.0671 1.41673C16.135 0.907076 15.2039 0.555476 14.0488 0.277077C13.1233 0.0540086 11.8063 -0.0472302 10.718 0.0210178ZM8.4915 5.26333C8.57487 5.36382 8.68176 5.51314 8.72901 5.59518C8.77624 5.67725 8.87109 5.83178 8.93975 5.93862C9.09151 6.1747 9.36434 6.66406 9.67085 7.24983C9.79663 7.49022 9.93408 7.74573 9.97629 7.81764C10.1078 8.04171 10.1904 8.33151 10.1901 8.56811C10.1897 8.88257 10.1118 8.99359 9.40059 9.69378L8.79217 10.2927L9.10029 10.7381C9.26973 10.9831 9.44811 11.2272 9.49662 11.2806C9.54517 11.334 9.61003 11.4177 9.64084 11.4664C9.75333 11.6448 10.3803 12.3595 10.7666 12.7497C11.3645 13.3536 11.9993 13.8714 12.5098 14.1715C12.8594 14.377 13.3807 14.627 13.5089 14.6506C13.6458 14.6758 13.6243 14.6919 14.3959 13.9866L14.9775 13.455L15.4118 13.5918C16.7658 14.018 17.3923 14.2456 17.9568 14.5163C18.2288 14.6468 18.4945 14.7953 18.547 14.8463C18.5996 14.8973 18.6886 15.0338 18.7449 15.1495C18.8371 15.3391 18.8472 15.3904 18.8472 15.6675C18.8472 15.9625 18.8416 15.9863 18.7102 16.2503C18.6348 16.4016 18.5306 16.5692 18.4787 16.6226C18.4267 16.676 18.33 16.7853 18.2637 16.8654C18.0798 17.0879 17.559 17.5274 17.2642 17.7087C17.1191 17.798 16.8855 17.9068 16.745 17.9504C16.236 18.1086 15.3229 18.0873 14.593 17.9003C13.773 17.6903 12.674 17.2455 11.9547 16.8326C11.7915 16.7389 11.5985 16.6301 11.526 16.5908C11.321 16.4799 10.5121 15.9442 10.3165 15.7899C10.2199 15.7137 10.0815 15.6085 10.009 15.5562C9.65739 15.3028 8.50812 14.2047 8.27883 13.903C8.21112 13.8139 8.13042 13.7204 8.09946 13.6952C8.02179 13.632 7.38732 12.7741 7.27137 12.5756C7.21939 12.4866 7.12244 12.3336 7.05592 12.2357C6.70074 11.7125 6.06396 10.2964 5.88644 9.63476C5.69688 8.92835 5.57384 8.18096 5.57357 7.73417C5.57321 7.14898 5.69107 6.90785 6.23885 6.37307C6.58528 6.03487 7.24274 5.52586 7.49513 5.40047C7.5718 5.36236 7.67661 5.30208 7.72805 5.2665C7.8603 5.175 8.11047 5.08396 8.23457 5.08218C8.32351 5.08089 8.36358 5.10915 8.4915 5.26333Z" fill="#AEAEAE"/>
<path fill-rule="evenodd" clip-rule="evenodd" d="M10.718 0.0210178C10.5038 0.0344537 9.52419 0.148449 9.38393 0.176259C8.94898 0.262508 7.98749 0.517467 7.65102 0.635768C7.45704 0.703983 6.35806 1.16388 6.31539 1.19473C6.29725 1.20781 6.17853 1.27376 6.05156 1.3412C5.58297 1.5902 5.45013 1.66849 5.09519 1.90454C4.20912 2.49387 3.50708 3.10063 2.82505 3.86657C2.54744 4.17838 1.97681 4.9159 1.84813 5.12923C1.80516 5.20045 1.70711 5.35343 1.63021 5.46917C1.28453 5.98948 0.664269 7.35739 0.444336 8.08445C0.29092 8.59158 0.0998763 9.5882 0.0333588 10.2284C0.0003474 10.546 -0.012811 12.0363 0.0154845 12.2519C0.0224759 12.3053 0.0373822 12.4291 0.0485949 12.5271C0.126259 13.2061 0.361395 14.2845 0.540996 14.7853C0.863096 15.6836 1.31843 16.6611 1.61533 17.0917C1.68301 17.1898 1.76173 17.3148 1.79032 17.3694C1.87112 17.5239 2.46591 18.3166 2.66214 18.5314C2.75906 18.6374 2.84655 18.7565 2.85664 18.7958C2.87979 18.8864 2.84091 19.0734 2.61524 19.9573C2.51522 20.349 2.39089 20.859 2.33895 21.0905C2.28701 21.3219 2.15905 21.8419 2.05464 22.2459C1.9502 22.6499 1.87286 22.9884 1.88276 22.9981C1.90386 23.0189 2.27942 22.8656 2.77924 22.6323C2.97467 22.541 3.14118 22.4664 3.14929 22.4664C3.16565 22.4664 3.41032 22.3584 3.80903 22.1751C3.95413 22.1084 4.18416 22.0065 4.32019 21.9486C4.45623 21.8908 4.73819 21.7639 4.94678 21.6666C5.15537 21.5694 5.44077 21.4464 5.58099 21.3932C5.72125 21.3401 5.84456 21.283 5.85504 21.2664C5.88904 21.2124 6.00549 21.2342 6.19535 21.3301C6.37966 21.4233 6.98475 21.6971 7.23878 21.8023C7.49252 21.9074 8.70062 22.2798 8.92069 22.3208C9.78977 22.4826 10.4436 22.5601 11.1423 22.5843C12.0713 22.6164 13.4015 22.4868 14.1897 22.2875C14.6251 22.1773 15.4964 21.9038 15.7814 21.7878C17.3695 21.1412 18.8169 20.1658 19.8733 19.0303C20.7388 18.0998 21.1949 17.4663 21.7227 16.4607C22.1625 15.6232 22.4757 14.8044 22.6705 13.984C22.9215 12.926 23.0178 12.0915 22.9973 11.1511C22.9795 10.3329 22.963 10.1449 22.8494 9.46757C22.7476 8.86088 22.51 7.95164 22.3416 7.52503C22.2573 7.31135 22.158 7.05095 22.121 6.94638C22.0177 6.65422 21.5221 5.72504 21.2354 5.28599C20.5152 4.18304 19.5697 3.14068 18.6823 2.47147C18.0055 1.96104 17.7115 1.76905 17.0671 1.41673C16.135 0.907076 15.2039 0.555476 14.0488 0.277077C13.1233 0.0540086 11.8063 -0.0472302 10.718 0.0210178ZM8.4915 5.26333C8.57487 5.36382 8.68176 5.51314 8.72901 5.59518C8.77624 5.67725 8.87109 5.83178 8.93975 5.93862C9.09151 6.1747 9.36434 6.66406 9.67085 7.24983C9.79663 7.49022 9.93408 7.74573 9.97629 7.81764C10.1078 8.04171 10.1904 8.33151 10.1901 8.56811C10.1897 8.88257 10.1118 8.99359 9.40059 9.69378L8.79217 10.2927L9.10029 10.7381C9.26973 10.9831 9.44811 11.2272 9.49662 11.2806C9.54517 11.334 9.61003 11.4177 9.64084 11.4664C9.75333 11.6448 10.3803 12.3595 10.7666 12.7497C11.3645 13.3536 11.9993 13.8714 12.5098 14.1715C12.8594 14.377 13.3807 14.627 13.5089 14.6506C13.6458 14.6758 13.6243 14.6919 14.3959 13.9866L14.9775 13.455L15.4118 13.5918C16.7658 14.018 17.3923 14.2456 17.9568 14.5163C18.2288 14.6468 18.4945 14.7953 18.547 14.8463C18.5996 14.8973 18.6886 15.0338 18.7449 15.1495C18.8371 15.3391 18.8472 15.3904 18.8472 15.6675C18.8472 15.9625 18.8416 15.9863 18.7102 16.2503C18.6348 16.4016 18.5306 16.5692 18.4787 16.6226C18.4267 16.676 18.33 16.7853 18.2637 16.8654C18.0798 17.0879 17.559 17.5274 17.2642 17.7087C17.1191 17.798 16.8855 17.9068 16.745 17.9504C16.236 18.1086 15.3229 18.0873 14.593 17.9003C13.773 17.6903 12.674 17.2455 11.9547 16.8326C11.7915 16.7389 11.5985 16.6301 11.526 16.5908C11.321 16.4799 10.5121 15.9442 10.3165 15.7899C10.2199 15.7137 10.0815 15.6085 10.009 15.5562C9.65739 15.3028 8.50812 14.2047 8.27883 13.903C8.21112 13.8139 8.13042 13.7204 8.09946 13.6952C8.02179 13.632 7.38732 12.7741 7.27137 12.5756C7.21939 12.4866 7.12244 12.3336 7.05592 12.2357C6.70074 11.7125 6.06396 10.2964 5.88644 9.63476C5.69688 8.92835 5.57384 8.18096 5.57357 7.73417C5.57321 7.14898 5.69107 6.90785 6.23885 6.37307C6.58528 6.03487 7.24274 5.52586 7.49513 5.40047C7.5718 5.36236 7.67661 5.30208 7.72805 5.2665C7.8603 5.175 8.11047 5.08396 8.23457 5.08218C8.32351 5.08089 8.36358 5.10915 8.4915 5.26333Z" fill="url(#paint0_linear_81_5926)"/>
<defs>
<linearGradient id="paint0_linear_81_5926" x1="11.5" y1="2.25698e-07" x2="19.0732" y2="23" gradientUnits="userSpaceOnUse">
<stop stop-color="#58D063"/>
<stop offset="1" stop-color="#28B43E"/>
</linearGradient>
</defs>
</svg>
